<svg xmlns="http://www.w3.org/2000/svg" fill-rule="evenodd" stroke-linejoin="round" stroke-width="28.22" clip-path="url(#a)" preserveAspectRatio="xMidYMid" viewBox="0 0 10587 10587"><defs><clipPath id="a"><path d="M0 0h10587v10587H0z"/></clipPath></defs><g clip-path="url(#a)"><path fill="#fff" d="M5431 10585c-974 25-1807-175-2663-640-857-465-1478-1055-1987-1885C272 7229 28 6407 3 5433c-26-974 174-1807 639-2663 465-857 1055-1478 1886-1988C3358 273 4180 30 5154 4c974-25 1808 175 2664 640s1478 1055 1987 1886c509 830 752 1652 778 2626 25 974-175 1808-640 2664-464 856-1055 1478-1885 1987-831 509-1653 752-2627 778z"/><path fill="#ff0" d="M5293 5295 5247 3h92l-46 5292z"/><path fill="#00f" d="m5293 5295 46 5291c-33 1-60 1-92 0l46-5291z"/><path fill="#fffb00" d="M5293 5295 5339 3l92 1-138 5291z"/><path fill="#0004ff" d="m5293 5295-46 5291c-33 0-60 0-93-1l139-5290z"/><path fill="#fff700" d="M5293 5295 5431 4l93 4-231 5287z"/><path fill="#0008ff" d="m5293 5295-139 5290-92-3 231-5287z"/><path fill="#fff300" d="M5293 5295 5524 8c32 1 59 3 92 5l-323 5282z"/><path fill="#000cff" d="m5293 5295-231 5287-92-5 323-5282z"/><path fill="#fe0" d="M5293 5295 5616 13c32 2 60 3 92 6l-415 5276z"/><path fill="#01f" d="m5293 5295-323 5282-92-7 415-5275z"/><path fill="#ffea00" d="M5293 5295 5708 19l92 8-507 5268z"/><path fill="#0015ff" d="m5293 5295-415 5275c-33-2-60-5-93-8l508-5267z"/><path fill="#ffe600" d="M5293 5295 5800 27c32 3 60 6 92 10l-599 5258z"/><path fill="#0019ff" d="m5293 5295-508 5267-91-9 599-5258z"/><path fill="#ffe200" d="M5293 5295 5892 37c32 3 59 7 91 11l-690 5247z"/><path fill="#001dff" d="m5293 5295-599 5258c-33-4-60-7-92-12l691-5246z"/><path fill="#fd0" d="M5293 5295 5983 48c33 4 60 8 92 13l-782 5234z"/><path fill="#02f" d="m5293 5295-691 5246-91-12 782-5234z"/><path fill="#ffd900" d="M5293 5295 6075 61l91 14-873 5220z"/><path fill="#0026ff" d="m5293 5295-782 5234-92-15 874-5219z"/><path fill="#ffd500" d="M5293 5295 6166 75c32 6 59 10 91 16l-964 5204z"/><path fill="#002aff" d="m5293 5295-874 5219c-32-5-59-10-91-16l965-5203z"/><path fill="#ffd100" d="M5293 5295 6257 91c32 6 59 11 91 18L5293 5295z"/><path fill="#002eff" d="m5293 5295-965 5203c-32-6-59-11-90-18l1055-5185z"/><path fill="#fc0" d="M5293 5295 6348 109c32 6 58 12 90 19L5293 5295z"/><path fill="#03f" d="m5293 5295-1055 5185c-32-6-59-12-91-19l1146-5166z"/><path fill="#ffc800" d="M5293 5295 6438 128l90 21-1235 5146z"/><path fill="#0037ff" d="m5293 5295-1146 5166-90-21 1236-5145z"/><path fill="#ffc400" d="M5293 5295 6528 149c32 7 58 14 90 22L5293 5295z"/><path fill="#003bff" d="m5293 5295-1236 5145c-31-7-58-14-89-22l1325-5123z"/><path fill="#ffc000" d="M5293 5295 6618 171l89 24-1414 5100z"/><path fill="#003fff" d="m5293 5295-1325 5123c-32-8-58-15-90-24l1415-5099z"/><path fill="#fb0" d="M5293 5295 6707 195l89 26-1503 5074z"/><path fill="#04f" d="m5293 5295-1415 5099c-31-8-57-16-88-25l1503-5074z"/><path fill="#ffb700" d="M5293 5295 6796 221c31 9 57 17 88 27L5293 5295z"/><path fill="#0048ff" d="m5293 5295-1503 5074-89-27 1592-5047z"/><path fill="#ffb300" d="M5293 5295 6884 248c31 9 57 18 88 28L5293 5295z"/><path fill="#004cff" d="m5293 5295-1592 5047-87-29 1679-5018z"/><path fill="#ffaf00" d="M5293 5295 6972 276c31 10 57 19 87 30L5293 5295z"/><path fill="#0050ff" d="m5293 5295-1679 5018c-31-10-57-19-88-30l1767-4988z"/><path fill="#fa0" d="M5293 5295 7059 306l87 32-1853 4957z"/><path fill="#05f" d="m5293 5295-1767 4988-87-31 1854-4957z"/><path fill="#ffa600" d="M5293 5295 7146 338c30 11 56 21 86 33L5293 5295z"/><path fill="#0059ff" d="m5293 5295-1854 4957-86-34 1940-4923z"/><path fill="#ffa200" d="M5293 5295 7232 371l86 34-2025 4890z"/><path fill="#005dff" d="m5293 5295-1940 4923c-30-11-55-22-85-34l2025-4889z"/><path fill="#ff9e00" d="M5293 5295 7318 405l85 37-2110 4853z"/><path fill="#0061ff" d="m5293 5295-2025 4889-85-36 2110-4853z"/><path fill="#f90" d="M5293 5295 7403 442l84 37-2194 4816z"/><path fill="#06f" d="m5293 5295-2110 4853-85-38 2195-4815z"/><path fill="#ff9500" d="M5293 5295 7487 479l84 39-2278 4777z"/><path fill="#006aff" d="m5293 5295-2195 4815-84-39 2279-4776z"/><path fill="#ff9100" d="M5293 5295 7571 518l83 41-2361 4736z"/><path fill="#006eff" d="m5293 5295-2279 4776-83-40 2362-4736z"/><path fill="#ff8d00" d="M5293 5295 7654 559c29 14 53 27 82 42L5293 5295z"/><path fill="#0072ff" d="m5293 5295-2362 4736-82-42 2444-4694z"/><path fill="#f80" d="M5293 5295 7736 601l82 43-2525 4651z"/><path fill="#07f" d="M5293 5295 2849 9989a2088.9 2088.9 0 0 1-81-44l2525-4650z"/><path fill="#ff8400" d="M5293 5295 7818 644c28 15 52 29 81 45L5293 5295z"/><path fill="#007bff" d="M5293 5295 2768 9945a2088.9 2088.9 0 0 1-81-44l2606-4606z"/><path fill="#ff8000" d="M5293 5295 7899 689l80 46-2686 4560z"/><path fill="#007fff" d="M5293 5295 2687 9901l-80-47 2686-4559z"/><path fill="#ff7c00" d="M5293 5295 7979 735c28 16 51 31 79 47L5293 5295z"/><path fill="#0083ff" d="M5293 5295 2607 9854c-28-16-52-30-79-47l2765-4512z"/><path fill="#f70" d="M5293 5295 8058 782l78 49-2843 4464z"/><path fill="#08f" d="M5293 5295 2528 9807l-79-49 2844-4463z"/><path fill="#ff7300" d="M5293 5295 8136 831l78 51-2921 4413z"/><path fill="#008cff" d="M5293 5295 2449 9758c-27-18-50-32-77-50l2921-4413z"/><path fill="#ff6f00" d="M5293 5295 8214 882l76 51-2997 4362z"/><path fill="#0090ff" d="M5293 5295 2372 9708l-77-52 2998-4361z"/><path fill="#ff6b00" d="M5293 5295 8290 933l76 53-3073 4309z"/><path fill="#0094ff" d="M5293 5295 2295 9656l-75-53 3073-4308z"/><path fill="#f60" d="M5293 5295 8366 986l75 55-3148 4254z"/><path fill="#09f" d="M5293 5295 2220 9603l-75-54 3148-4254z"/><path fill="#ff6200" d="m5293 5295 3148-4254c26 19 48 35 73 55L5293 5295z"/><path fill="#009dff" d="M5293 5295 2145 9549l-74-56 3222-4198z"/><path fill="#ff5e00" d="m5293 5295 3221-4199 73 57-3294 4142z"/><path fill="#00a1ff" d="M5293 5295 2071 9493l-73-57 3295-4141z"/><path fill="#ff5a00" d="m5293 5295 3294-4142 72 58-3366 4084z"/><path fill="#00a5ff" d="M5293 5295 1998 9436l-71-58 3366-4083z"/><path fill="#f50" d="m5293 5295 3366-4084 71 60-3437 4024z"/><path fill="#0af" d="M5293 5295 1927 9378l-71-59 3437-4024z"/><path fill="#ff5100" d="m5293 5295 3437-4024 69 60-3506 3964z"/><path fill="#00aeff" d="M5293 5295 1856 9319c-25-21-46-39-70-61l3507-3963z"/><path fill="#ff4d00" d="m5293 5295 3506-3964 69 62-3575 3902z"/><path fill="#00b2ff" d="M5293 5295 1786 9258l-69-62 3576-3901z"/><path fill="#ff4900" d="m5293 5295 3575-3902 67 63-3642 3839z"/><path fill="#00b6ff" d="M5293 5295 1717 9196l-67-63 3643-3838z"/><path fill="#f40" d="m5293 5295 3642-3839a2024.3 2024.3 0 0 1 67 64L5293 5295z"/><path fill="#0bf" d="M5293 5295 1650 9133c-24-22-43-41-66-64l3709-3774z"/><path fill="#ff4000" d="m5293 5295 3709-3775 65 65-3774 3710z"/><path fill="#00bfff" d="M5293 5295 1584 9069c-24-23-43-42-66-65l3775-3709z"/><path fill="#ff3c00" d="m5293 5295 3774-3710 64 67-3838 3643z"/><path fill="#00c3ff" d="M5293 5295 1518 9004a2024.3 2024.3 0 0 1-64-67l3839-3642z"/><path fill="#ff3800" d="m5293 5295 3838-3643c23 23 41 43 63 67L5293 5295z"/><path fill="#00c7ff" d="M5293 5295 1454 8937l-63-67 3902-3575z"/><path fill="#f30" d="m5293 5295 3901-3576 62 69-3963 3507z"/><path fill="#0cf" d="M5293 5295 1391 8870l-62-69 3964-3506z"/><path fill="#ff2f00" d="m5293 5295 3963-3507c22 24 40 45 61 70L5293 5295z"/><path fill="#00d0ff" d="M5293 5295 1329 8801l-60-69 4024-3437z"/><path fill="#ff2b00" d="m5293 5295 4024-3437c21 24 38 45 59 71L5293 5295z"/><path fill="#00d4ff" d="M5293 5295 1269 8732l-60-71 4084-3366z"/><path fill="#ff2700" d="m5293 5295 4083-3366a3617.7 3617.7 0 0 1 58 71L5293 5295z"/><path fill="#00d8ff" d="M5293 5295 1209 8661l-58-72 4142-3294z"/><path fill="#f20" d="m5293 5295 4141-3295 57 73-4198 3222z"/><path fill="#0df" d="M5293 5295 1151 8589c-20-25-37-47-57-73l4199-3221z"/><path fill="#ff1e00" d="m5293 5295 4198-3222 56 74-4254 3148z"/><path fill="#00e1ff" d="M5293 5295 1094 8516l-55-74 4254-3147z"/><path fill="#ff1a00" d="m5293 5295 4254-3148 54 75-4308 3073z"/><path fill="#00e5ff" d="M5293 5295 1039 8442c-20-26-36-48-55-74l4309-3073z"/><path fill="#ff1600" d="m5293 5295 4308-3073c19 26 35 48 53 75L5293 5295z"/><path fill="#00e9ff" d="M5293 5295 984 8368c-18-27-34-49-53-76l4362-2997z"/><path fill="#f10" d="m5293 5295 4361-2998 52 77-4413 2921z"/><path fill="#0ef" d="M5293 5295 931 8292l-51-76 4413-2921z"/><path fill="#ff0d00" d="m5293 5295 4413-2921 50 77-4463 2844z"/><path fill="#00f2ff" d="M5293 5295 880 8216l-51-78 4464-2843z"/><path fill="#ff0900" d="m5293 5295 4463-2844 49 79-4512 2765z"/><path fill="#00f6ff" d="M5293 5295 829 8138l-48-78 4512-2765z"/><path fill="#ff0500" d="m5293 5295 4512-2765c17 27 31 51 47 79L5293 5295z"/><path fill="#00faff" d="M5293 5295 781 8060l-48-79 4560-2686z"/><path fill="red" d="m5293 5295 4559-2686c17 28 31 51 47 80L5293 5295z"/><path fill="#0ff" d="M5293 5295 733 7981c-17-28-30-52-46-80l4606-2606z"/><path fill="#ff0004" d="m5293 5295 4606-2606a2088.9 2088.9 0 0 1 44 81L5293 5295z"/><path fill="#00fffb" d="M5293 5295 687 7901l-45-81 4651-2525z"/><path fill="#ff0008" d="m5293 5295 4650-2525a2088.9 2088.9 0 0 1 44 81L5293 5295z"/><path fill="#00fff7" d="M5293 5295 642 7820l-43-82 4694-2443z"/><path fill="#ff000c" d="m5293 5295 4694-2444 42 82-4736 2362z"/><path fill="#00fff3" d="M5293 5295 599 7738c-15-29-28-53-42-82l4736-2361z"/><path fill="#f01" d="m5293 5295 4736-2362 40 83-4776 2279z"/><path fill="#0fe" d="M5293 5295 557 7656c-15-29-27-54-41-83l4777-2278z"/><path fill="#ff0015" d="m5293 5295 4776-2279 39 84-4815 2195z"/><path fill="#00ffea" d="M5293 5295 516 7573l-39-84 4816-2194z"/><path fill="#ff0019" d="m5293 5295 4815-2195c14 30 25 55 38 84L5293 5295z"/><path fill="#00ffe6" d="M5293 5295 477 7489l-37-84 4853-2110z"/><path fill="#ff001d" d="m5293 5295 4853-2111 36 85-4889 2026z"/><path fill="#00ffe2" d="M5293 5295 440 7405l-36-85 4889-2025z"/><path fill="#f02" d="m5293 5295 4889-2026 34 86-4923 1940z"/><path fill="#0fd" d="M5293 5295 404 7320c-13-30-23-56-35-86l4924-1939z"/><path fill="#ff0026" d="m5293 5295 4923-1940 34 86-4957 1854z"/><path fill="#00ffd9" d="M5293 5295 369 7234l-33-86 4957-1853z"/><path fill="#ff002a" d="m5293 5295 4957-1854 31 87-4988 1767z"/><path fill="#00ffd5" d="M5293 5295 336 7148c-12-30-21-56-32-87l4989-1766z"/><path fill="#ff002e" d="m5293 5295 4988-1767 30 87-5018 1680z"/><path fill="#00ffd1" d="M5293 5295 304 7061c-11-30-20-56-30-87l5019-1679z"/><path fill="#f03" d="m5293 5295 5018-1680c11 31 19 57 29 88L5293 5295z"/><path fill="#0fc" d="M5293 5295 274 6974l-28-88 5047-1591z"/><path fill="#ff0037" d="m5293 5295 5047-1592c10 31 18 58 27 89L5293 5295z"/><path fill="#00ffc8" d="M5293 5295 246 6886l-27-88 5074-1503z"/><path fill="#ff003b" d="m5293 5295 5074-1503 25 88-5099 1415z"/><path fill="#00ffc4" d="M5293 5295 219 6798c-10-31-17-58-26-89l5100-1414z"/><path fill="#ff003f" d="m5293 5295 5099-1415 24 90-5123 1325z"/><path fill="#00ffc0" d="M5293 5295 193 6709l-24-89 5124-1325z"/><path fill="#f04" d="m5293 5295 5123-1325 22 89-5145 1236z"/><path fill="#0fb" d="M5293 5295 169 6620l-22-90 5146-1235z"/><path fill="#ff0048" d="m5293 5295 5145-1236 21 90-5166 1146z"/><path fill="#00ffb7" d="M5293 5295 147 6530c-8-32-14-58-21-90l5167-1145z"/><path fill="#ff004c" d="m5293 5295 5166-1146 19 91-5185 1055z"/><path fill="#00ffb3" d="M5293 5295 126 6440l-19-90 5186-1055z"/><path fill="#ff0050" d="m5293 5295 5185-1055c7 31 12 58 18 90l-5203 965z"/><path fill="#00ffaf" d="M5293 5295 107 6350c-7-32-12-59-18-91l5204-964z"/><path fill="#f05" d="m5293 5295 5203-965 16 91-5219 874z"/><path fill="#0fa" d="M5293 5295 89 6259c-6-32-10-59-16-91l5220-873z"/><path fill="#ff0059" d="m5293 5295 5219-874 15 91-5234 783z"/><path fill="#00ffa6" d="M5293 5295 73 6168l-14-91 5234-782z"/><path fill="#ff005d" d="m5293 5295 5234-783 12 92-5246 691z"/><path fill="#00ffa2" d="M5293 5295 59 6077c-5-32-9-59-13-92l5247-690z"/><path fill="#ff0061" d="m5293 5295 5246-691c5 32 8 59 12 92l-5258 599z"/><path fill="#00ff9e" d="M5293 5295 46 5985c-4-32-8-59-11-91l5258-599z"/><path fill="#f06" d="m5293 5295 5258-599 9 91-5267 508z"/><path fill="#0f9" d="M5293 5295 35 5894l-10-92 5268-507z"/><path fill="#ff006a" d="m5293 5295 5267-508 8 92-5275 416z"/><path fill="#00ff95" d="M5293 5295 25 5802l-8-92 5276-415z"/><path fill="#ff006e" d="m5293 5295 5275-416a2907.7 2907.7 0 0 1 7 93l-5282 323z"/><path fill="#00ff91" d="M5293 5295 17 5710c-3-33-4-60-6-92l5282-323z"/><path fill="#ff0072" d="m5293 5295 5282-323 5 92-5287 231z"/><path fill="#00ff8d" d="M5293 5295 11 5618c-2-33-4-60-5-93l5287-230z"/><path fill="#f07" d="m5293 5295 5287-231 3 92-5290 139z"/><path fill="#0f8" d="M5293 5295 6 5525c-2-32-3-59-3-92l5290-138z"/><path fill="#ff007b" d="m5293 5295 5290-139 2 92-5292 47z"/><path fill="#00ff84" d="M5293 5295 3 5433l-2-92 5292-46z"/><path fill="#ff007f" d="m5293 5295 5292-47v93l-5292-46z"/><path fill="#00ff80" d="M5293 5295 1 5341v-93l5292 47z"/><path fill="#ff0083" d="m5293 5295 5292 46-2 92-5290-138z"/><path fill="#00ff7c" d="M5293 5295 1 5248c0-32 1-59 2-92l5290 139z"/><path fill="#f08" d="m5293 5295 5290 138-3 92-5287-230z"/><path fill="#0f7" d="M5293 5295 3 5156c0-32 1-60 3-92l5287 231z"/><path fill="#ff008c" d="m5293 5295 5287 230-5 93-5282-323z"/><path fill="#00ff73" d="M5293 5295 6 5064c1-33 3-60 5-92l5282 323z"/><path fill="#ff0090" d="m5293 5295 5282 323c-2 32-4 59-7 92l-5275-415z"/><path fill="#00ff6f" d="M5293 5295 11 4972l6-93 5276 416z"/><path fill="#ff0094" d="m5293 5295 5275 415c-2 32-5 60-8 92l-5267-507z"/><path fill="#00ff6b" d="M5293 5295 17 4879l8-92 5268 508z"/><path fill="#f09" d="m5293 5295 5267 507-9 92-5258-599z"/><path fill="#0f6" d="M5293 5295 25 4787c3-32 6-59 10-91l5258 599z"/><path fill="#ff009d" d="m5293 5295 5258 599-12 91-5246-690z"/><path fill="#00ff62" d="M5293 5295 35 4696c3-33 7-60 11-92l5247 691z"/><path fill="#ff00a1" d="m5293 5295 5246 690-12 92-5234-782z"/><path fill="#00ff5e" d="M5293 5295 46 4604c4-32 8-59 13-92l5234 783z"/><path fill="#ff00a5" d="m5293 5295 5234 782-15 91-5219-873z"/><path fill="#00ff5a" d="M5293 5295 59 4512l14-91 5220 874z"/><path fill="#f0a" d="m5293 5295 5219 873-16 91-5203-964z"/><path fill="#0f5" d="M5293 5295 73 4421l16-91 5204 965z"/><path fill="#ff00ae" d="m5293 5295 5203 964-18 91-5185-1055z"/><path fill="#00ff51" d="M5293 5295 89 4330c6-32 11-59 18-90l5186 1055z"/><path fill="#ff00b2" d="m5293 5295 5185 1055c-6 32-12 58-19 90L5293 5295z"/><path fill="#00ff4d" d="M5293 5295 107 4240c6-32 12-59 19-91l5167 1146z"/><path fill="#ff00b6" d="m5293 5295 5166 1145-21 90-5145-1235z"/><path fill="#00ff49" d="M5293 5295 126 4149l21-90 5146 1236z"/><path fill="#f0b" d="m5293 5295 5145 1235c-7 32-14 58-22 90L5293 5295z"/><path fill="#0f4" d="M5293 5295 147 4059l22-89 5124 1325z"/><path fill="#ff00bf" d="m5293 5295 5123 1325-24 89-5099-1414z"/><path fill="#00ff40" d="M5293 5295 169 3970c8-32 16-58 24-90l5100 1415z"/><path fill="#ff00c3" d="m5293 5295 5099 1414c-8 31-16 58-25 89L5293 5295z"/><path fill="#00ff3c" d="M5293 5295 193 3880c9-31 16-57 26-88l5074 1503z"/><path fill="#ff00c7" d="m5293 5295 5074 1503c-9 31-17 57-27 88L5293 5295z"/><path fill="#00ff38" d="M5293 5295 219 3792l27-89 5047 1592z"/><path fill="#f0c" d="m5293 5295 5047 1591-29 88-5018-1679z"/><path fill="#0f3" d="M5293 5295 246 3703c9-31 18-57 28-88l5019 1680z"/><path fill="#ff00d0" d="m5293 5295 5018 1679c-10 31-19 57-30 87L5293 5295z"/><path fill="#00ff2f" d="M5293 5295 274 3615l30-87 4989 1767z"/><path fill="#ff00d4" d="m5293 5295 4988 1766-31 87-4957-1853z"/><path fill="#00ff2b" d="M5293 5295 304 3528l32-87 4957 1854z"/><path fill="#ff00d8" d="m5293 5295 4957 1853-34 86-4923-1939z"/><path fill="#00ff27" d="M5293 5295 336 3441c11-30 21-56 33-86l4924 1940z"/><path fill="#f0d" d="m5293 5295 4923 1939c-11 30-22 56-34 86L5293 5295z"/><path fill="#0f2" d="M5293 5295 369 3355c12-30 22-56 35-86l4889 2026z"/><path fill="#ff00e1" d="m5293 5295 4889 2025-36 85-4853-2110z"/><path fill="#00ff1e" d="M5293 5295 404 3269c12-30 23-55 36-85l4853 2111z"/><path fill="#ff00e5" d="m5293 5295 4853 2110c-13 30-24 55-38 84L5293 5295z"/><path fill="#00ff1a" d="M5293 5295 440 3184l37-84 4816 2195z"/><path fill="#ff00e9" d="m5293 5295 4815 2194c-13 30-25 55-39 84L5293 5295z"/><path fill="#00ff16" d="M5293 5295 477 3100c14-29 25-54 39-84l4777 2279z"/><path fill="#f0e" d="m5293 5295 4776 2278-40 83-4736-2361z"/><path fill="#0f1" d="M5293 5295 516 3016l41-83 4736 2362z"/><path fill="#ff00f2" d="m5293 5295 4736 2361-42 82-4694-2443z"/><path fill="#00ff0d" d="M5293 5295 557 2933c14-29 27-53 42-82l4694 2444z"/><path fill="#ff00f6" d="m5293 5295 4694 2443-44 82-4650-2525z"/><path fill="#00ff09" d="M5293 5295 599 2851l43-81 4651 2525z"/><path fill="#ff00fa" d="m5293 5295 4650 2525-44 81-4606-2606z"/><path fill="#00ff05" d="M5293 5295 642 2770l45-81 4606 2606z"/><path fill="#f0f" d="m5293 5295 4606 2606-47 80-4559-2686z"/><path fill="#0f0" d="M5293 5295 687 2689c16-29 29-52 46-80l4560 2686z"/><path fill="#fb00ff" d="m5293 5295 4559 2686c-16 28-30 51-47 79L5293 5295z"/><path fill="#04ff00" d="M5293 5295 733 2609c16-28 31-52 48-79l4512 2765z"/><path fill="#f700ff" d="m5293 5295 4512 2765-49 78-4463-2843z"/><path fill="#08ff00" d="M5293 5295 781 2530l48-79 4464 2844z"/><path fill="#f300ff" d="m5293 5295 4463 2843c-18 27-32 50-50 78L5293 5295z"/><path fill="#0cff00" d="M5293 5295 829 2451l51-77 4413 2921z"/><path fill="#e0f" d="m5293 5295 4413 2921-52 76-4361-2997z"/><path fill="#1f0" d="M5293 5295 880 2374l51-77 4362 2998z"/><path fill="#ea00ff" d="m5293 5295 4361 2997c-18 27-34 49-53 76L5293 5295z"/><path fill="#15ff00" d="M5293 5295 931 2297l53-75 4309 3073z"/><path fill="#e600ff" d="m5293 5295 4308 3073-54 74-4254-3147z"/><path fill="#19ff00" d="M5293 5295 984 2222c19-27 35-49 55-75l4254 3148z"/><path fill="#e200ff" d="m5293 5295 4254 3147-56 74-4198-3221z"/><path fill="#1dff00" d="M5293 5295 1039 2147l55-74 4199 3222z"/><path fill="#d0f" d="m5293 5295 4198 3221-57 73-4141-3294z"/><path fill="#2f0" d="M5293 5295 1094 2073l57-73 4142 3295z"/><path fill="#d900ff" d="m5293 5295 4141 3294-58 72-4083-3366z"/><path fill="#26ff00" d="M5293 5295 1151 2000l58-71 4084 3366z"/><path fill="#d500ff" d="m5293 5295 4083 3366-59 71-4024-3437z"/><path fill="#2aff00" d="M5293 5295 1209 1929c21-26 39-47 60-71l4024 3437z"/><path fill="#d100ff" d="m5293 5295 4024 3437-61 69-3963-3506z"/><path fill="#2eff00" d="M5293 5295 1269 1858l60-70 3964 3507z"/><path fill="#c0f" d="m5293 5295 3963 3506c-21 25-40 45-62 69L5293 5295z"/><path fill="#3f0" d="M5293 5295 1329 1788l62-69 3902 3576z"/><path fill="#c800ff" d="m5293 5295 3901 3575c-22 24-40 44-63 67L5293 5295z"/><path fill="#37ff00" d="M5293 5295 1391 1719l63-67 3839 3643z"/><path fill="#c400ff" d="m5293 5295 3838 3642a2024.3 2024.3 0 0 1-64 67L5293 5295z"/><path fill="#3bff00" d="M5293 5295 1454 1652c22-24 41-43 64-67l3775 3710z"/><path fill="#c000ff" d="m5293 5295 3774 3709-65 65-3709-3774z"/><path fill="#3fff00" d="M5293 5295 1518 1585l66-65 3709 3775z"/><path fill="#b0f" d="m5293 5295 3709 3774a2024.3 2024.3 0 0 1-67 64L5293 5295z"/><path fill="#4f0" d="M5293 5295 1584 1520c23-23 42-42 66-64l3643 3839z"/><path fill="#b700ff" d="m5293 5295 3642 3838c-23 23-43 41-67 63L5293 5295z"/><path fill="#48ff00" d="M5293 5295 1650 1456l67-63 3576 3902z"/><path fill="#b300ff" d="m5293 5295 3575 3901c-24 22-44 41-69 62L5293 5295z"/><path fill="#4cff00" d="M5293 5295 1717 1393l69-62 3507 3964z"/><path fill="#af00ff" d="m5293 5295 3506 3963c-24 22-45 40-69 61L5293 5295z"/><path fill="#50ff00" d="M5293 5295 1786 1331l70-60 3437 4024z"/><path fill="#a0f" d="m5293 5295 3437 4024-71 59-3366-4083z"/><path fill="#5f0" d="M5293 5295 1856 1271c25-22 46-39 71-60l3366 4084z"/><path fill="#a600ff" d="m5293 5295 3366 4083c-25 21-47 38-72 58L5293 5295z"/><path fill="#59ff00" d="M5293 5295 1927 1211l71-58 3295 4142z"/><path fill="#a200ff" d="m5293 5295 3294 4141-73 57-3221-4198z"/><path fill="#5dff00" d="M5293 5295 1998 1153l73-57 3222 4199z"/><path fill="#9e00ff" d="m5293 5295 3221 4198c-25 20-47 36-73 56L5293 5295z"/><path fill="#61ff00" d="M5293 5295 2071 1096c26-20 48-36 74-55l3148 4254z"/><path fill="#90f" d="m5293 5295 3148 4254-75 54-3073-4308z"/><path fill="#6f0" d="M5293 5295 2145 1041c26-20 48-36 75-55l3073 4309z"/><path fill="#9500ff" d="m5293 5295 3073 4308-76 53-2997-4361z"/><path fill="#6aff00" d="M5293 5295 2220 986l75-53 2998 4362z"/><path fill="#9100ff" d="m5293 5295 2997 4361-76 52-2921-4413z"/><path fill="#6eff00" d="M5293 5295 2295 933l77-51 2921 4413z"/><path fill="#8d00ff" d="m5293 5295 2921 4413-78 50-2843-4463z"/><path fill="#72ff00" d="M5293 5295 2372 882l77-51 2844 4464z"/><path fill="#80f" d="m5293 5295 2843 4463-78 49-2765-4512z"/><path fill="#7f0" d="M5293 5295 2449 831l79-49 2765 4513z"/><path fill="#8400ff" d="m5293 5295 2765 4512-79 47-2686-4559z"/><path fill="#7bff00" d="M5293 5295 2528 782l79-47 2686 4560z"/><path fill="#8000ff" d="m5293 5295 2686 4559-80 47-2606-4606z"/><path fill="#7fff00" d="M5293 5295 2607 735c28-17 52-30 80-46l2606 4606z"/><path fill="#7c00ff" d="m5293 5295 2606 4606-81 44-2525-4650z"/><path fill="#83ff00" d="M5293 5295 2687 689l81-45 2525 4651z"/><path fill="#70f" d="m5293 5295 2525 4650-82 44-2443-4694z"/><path fill="#8f0" d="M5293 5295 2768 644c28-16 52-28 81-43l2444 4694z"/><path fill="#7300ff" d="m5293 5295 2443 4694-82 42-2361-4736z"/><path fill="#8cff00" d="M5293 5295 2849 601c29-15 53-28 82-42l2362 4736z"/><path fill="#6f00ff" d="m5293 5295 2361 4736-83 40-2278-4776z"/><path fill="#90ff00" d="M5293 5295 2931 559c29-15 54-27 83-41l2279 4777z"/><path fill="#6b00ff" d="m5293 5295 2278 4776c-29 14-54 26-84 39L5293 5295z"/><path fill="#94ff00" d="M5293 5295 3014 518l84-39 2195 4816z"/><path fill="#60f" d="m5293 5295 2194 4815c-29 14-54 25-84 38L5293 5295z"/><path fill="#9f0" d="M5293 5295 3098 479l85-37 2110 4853z"/><path fill="#6200ff" d="m5293 5295 2110 4853-85 36-2025-4889z"/><path fill="#9dff00" d="M5293 5295 3183 442l85-37 2025 4890z"/><path fill="#5e00ff" d="m5293 5295 2025 4889c-30 12-56 23-86 34L5293 5295z"/><path fill="#a1ff00" d="M5293 5295 3268 405l85-34 1940 4924z"/><path fill="#5a00ff" d="m5293 5295 1939 4923-86 34-1853-4957z"/><path fill="#a5ff00" d="M5293 5295 3353 371l86-33 1854 4957z"/><path fill="#50f" d="m5293 5295 1853 4957-87 31-1766-4988z"/><path fill="#af0" d="M5293 5295 3439 338c31-12 57-21 87-32l1767 4989z"/><path fill="#5100ff" d="m5293 5295 1766 4988c-30 11-56 20-87 30L5293 5295z"/><path fill="#aeff00" d="M5293 5295 3526 306l88-30 1679 5019z"/><path fill="#4d00ff" d="m5293 5295 1679 5018-88 29-1591-5047z"/><path fill="#b2ff00" d="M5293 5295 3614 276c30-10 56-19 87-28l1592 5047z"/><path fill="#4900ff" d="m5293 5295 1591 5047c-31 9-57 18-88 27L5293 5295z"/><path fill="#b6ff00" d="M5293 5295 3701 248c31-10 58-18 89-27l1503 5074z"/><path fill="#40f" d="m5293 5295 1503 5074-89 25-1414-5099z"/><path fill="#bf0" d="M5293 5295 3790 221c31-10 57-17 88-26l1415 5100z"/><path fill="#4000ff" d="m5293 5295 1414 5099c-31 9-58 16-89 24L5293 5295z"/><path fill="#bfff00" d="M5293 5295 3878 195l90-24 1325 5124z"/><path fill="#3c00ff" d="m5293 5295 1325 5123-90 22-1235-5145z"/><path fill="#c3ff00" d="M5293 5295 3968 171l89-22 1236 5146z"/><path fill="#3800ff" d="m5293 5295 1235 5145c-31 8-58 14-90 21L5293 5295z"/><path fill="#c7ff00" d="M5293 5295 4057 149l90-21 1146 5167z"/><path fill="#30f" d="m5293 5295 1145 5166-90 19-1055-5185z"/><path fill="#cf0" d="M5293 5295 4147 128l91-19 1055 5186z"/><path fill="#2f00ff" d="m5293 5295 1055 5185c-32 7-59 12-91 18l-964-5203z"/><path fill="#d0ff00" d="M5293 5295 4238 109c31-7 58-12 90-18l965 5204z"/><path fill="#2b00ff" d="m5293 5295 964 5203-91 16-873-5219z"/><path fill="#d4ff00" d="M5293 5295 4328 91c32-6 59-10 91-16l874 5220z"/><path fill="#2700ff" d="m5293 5295 873 5219-91 15-782-5234z"/><path fill="#d8ff00" d="M5293 5295 4419 75l92-14 782 5234z"/><path fill="#20f" d="m5293 5295 782 5234-92 12-690-5246z"/><path fill="#df0" d="M5293 5295 4511 61l91-13 691 5247z"/><path fill="#1e00ff" d="m5293 5295 690 5246c-32 5-59 8-91 12l-599-5258z"/><path fill="#e1ff00" d="M5293 5295 4602 48l92-11 599 5258z"/><path fill="#1a00ff" d="m5293 5295 599 5258-92 9-507-5267z"/><path fill="#e5ff00" d="M5293 5295 4694 37l91-10 508 5268z"/><path fill="#1600ff" d="m5293 5295 507 5267-92 8-415-5275z"/><path fill="#e9ff00" d="M5293 5295 4785 27l93-8 415 5276z"/><path fill="#10f" d="m5293 5295 415 5275c-32 3-60 5-92 7l-323-5282z"/><path fill="#ef0" d="M5293 5295 4878 19c32-3 59-4 92-6l323 5282z"/><path fill="#0d00ff" d="m5293 5295 323 5282-92 5-231-5287z"/><path fill="#f2ff00" d="M5293 5295 4970 13c32-2 59-4 92-5l231 5287z"/><path fill="#0900ff" d="m5293 5295 231 5287-93 3-138-5290z"/><path fill="#f6ff00" d="M5293 5295 5062 8c32-2 60-3 92-4l139 5291z"/><path fill="#0500ff" d="m5293 5295 138 5290c-32 1-60 1-92 1l-46-5291z"/><path fill="#faff00" d="M5293 5295 5154 4l93-1 46 5292z"/><path fill="#fff" d="M5339 7059c-324 8-602-59-888-214-285-155-493-351-662-628-170-277-251-551-260-876-8-325 58-603 213-888 155-286 352-493 629-663s551-251 876-259c325-9 603 58 888 213 286 155 493 352 663 629 169 277 250 551 259 876 8 324-58 602-213 888-155 285-352 492-629 662s-551 251-876 260z"/></g></svg>